  0
SECTION
  2
HEADER
  9
$ACADVER
  1
AC1014
  9
$HANDSEED
  5
FFFF
  9
$MEASUREMENT
 70
     1
  0
ENDSEC
  0
SECTION
  2
TABLES
  0
TABLE
  2
VPORT
  5
8
330
0
100
AcDbSymbolTable
 70
     4
  0
VPORT
  5
2E
330
8
100
AcDbSymbolTableRecord
100
AcDbViewportTableRecord
  2
*ACTIVE
 70
     0
 10
0.0
 20
0.0
 11
1.0
 21
1.0
 12
210.0
 22
148.5
 13
0.0
 23
0.0
 14
10.0
 24
10.0
 15
10.0
 25
10.0
 16
0.0
 26
0.0
 36
1.0
 17
0.0
 27
0.0
 37
0.0
 40
341.0
 41
1.24
 42
50.0
 43
0.0
 44
0.0
 50
0.0
 51
0.0
 71
     0
 72
   100
 73
     1
 74
     3
 75
     0
 76
     0
 77
     0
 78
     0
  0
ENDTAB
  0
TABLE
  2
LTYPE
  5
5
330
0
100
AcDbSymbolTable
 70
     1
  0
LTYPE
  5
14
330
5
100
AcDbSymbolTableRecord
100
AcDbLinetypeTableRecord
  2
BYBLOCK
 70
     0
  3

 72
    65
 73
     0
 40
0.0
  0
LTYPE
  5
15
330
5
100
AcDbSymbolTableRecord
100
AcDbLinetypeTableRecord
  2
BYLAYER
 70
     0
  3

 72
    65
 73
     0
 40
0.0
  0
LTYPE
  5
16
330
5
100
AcDbSymbolTableRecord
100
AcDbLinetypeTableRecord
  2
CONTINUOUS
 70
     0
  3
Solid line
 72
    65
 73
     0
 40
0.0
  0
ENDTAB
  0
TABLE
  2
LAYER
  5
2
100
AcDbSymbolTable
 70
2
  0
LAYER
  5
50
100
AcDbSymbolTableRecord
100
AcDbLayerTableRecord
  2
0
 70
0
  6
CONTINUOUS
  0
LAYER
  5
51
100
AcDbSymbolTableRecord
100
AcDbLayerTableRecord
  2
Layer_1
 70
0
  6
CONTINUOUS
  0
ENDTAB
  0
TABLE
  2
STYLE
  5
3
330
0
100
AcDbSymbolTable
 70
     1
  0
STYLE
  5
11
330
3
100
AcDbSymbolTableRecord
100
AcDbTextStyleTableRecord
  2
STANDARD
 70
     0
 40
0.0
 41
1.0
 50
0.0
 71
     0
 42
2.5
  3
txt
  4

  0
ENDTAB
  0
TABLE
  2
VIEW
  5
6
330
0
100
AcDbSymbolTable
 70
     0
  0
ENDTAB
  0
TABLE
  2
UCS
  5
7
330
0
100
AcDbSymbolTable
 70
     0
  0
ENDTAB
  0
TABLE
  2
APPID
  5
9
330
0
100
AcDbSymbolTable
 70
     2
  0
APPID
  5
12
330
9
100
AcDbSymbolTableRecord
100
AcDbRegAppTableRecord
  2
ACAD
 70
     0
  0
ENDTAB
  0
TABLE
  2
DIMSTYLE
  5
A
330
0
100
AcDbSymbolTable
 70
     1
  0
DIMSTYLE
105
27
330
A
100
AcDbSymbolTableRecord
100
AcDbDimStyleTableRecord
  2
ISO-25
 70
     0
  3

  4

  5

  6

  7

 40
1.0
 41
2.5
 42
0.625
 43
3.75
 44
1.25
 45
0.0
 46
0.0
 47
0.0
 48
0.0
140
2.5
141
2.5
142
0.0
143
0.03937007874016
144
1.0
145
0.0
146
1.0
147
0.625
 71
     0
 72
     0
 73
     0
 74
     0
 75
     0
 76
     0
 77
     1
 78
     8
170
     0
171
     3
172
     1
173
     0
174
     0
175
     0
176
     0
177
     0
178
     0
270
     2
271
     2
272
     2
273
     2
274
     3
340
11
275
     0
280
     0
281
     0
282
     0
283
     0
284
     8
285
     0
286
     0
287
     3
288
     0
  0
ENDTAB
  0
TABLE
  2
BLOCK_RECORD
  5
1
330
0
100
AcDbSymbolTable
 70
     1
  0
BLOCK_RECORD
  5
1F
330
1
100
AcDbSymbolTableRecord
100
AcDbBlockTableRecord
  2
*MODEL_SPACE
  0
BLOCK_RECORD
  5
1B
330
1
100
AcDbSymbolTableRecord
100
AcDbBlockTableRecord
  2
*PAPER_SPACE
  0
ENDTAB
  0
ENDSEC
  0
SECTION
  2
BLOCKS
  0
BLOCK
  5
20
330
1F
100
AcDbEntity
  8
0
100
AcDbBlockBegin
  2
*MODEL_SPACE
 70
     0
 10
0.0
 20
0.0
 30
0.0
  3
*MODEL_SPACE
  1

  0
ENDBLK
  5
21
330
1F
100
AcDbEntity
  8
0
100
AcDbBlockEnd
  0
BLOCK
  5
1C
330
1B
100
AcDbEntity
 67
     1
  8
0
100
AcDbBlockBegin
  2
*PAPER_SPACE
  1

  0
ENDBLK
  5
1D
330
1B
100
AcDbEntity
 67
     1
  8
0
100
AcDbBlockEnd
  0
ENDSEC
  0
SECTION
  2
ENTITIES
  0
SPLINE
  5
100
100
AcDbEntity
  8
Layer_1
 62
5
100
AcDbSpline
 70
8
 71
3
 72
8
 73
4
 74
0
 40
0
 40
0
 40
0
 40
0
 40
1
 40
1
 40
1
 40
1
 10
107.254524
 20
169.549790
 30
0.0
 10
106.466205
 20
170.282217
 30
0.0
 10
105.774333
 20
170.939360
 30
0.0
 10
105.425064
 20
171.380248
 30
0.0
  0
SPLINE
  5
101
100
AcDbEntity
  8
Layer_1
 62
5
100
AcDbSpline
 70
8
 71
3
 72
8
 73
4
 74
0
 40
0
 40
0
 40
0
 40
0
 40
1
 40
1
 40
1
 40
1
 10
105.425064
 20
171.380248
 30
0.0
 10
105.305851
 20
171.530692
 30
0.0
 10
104.940579
 20
171.991200
 30
0.0
 10
104.614344
 20
172.401440
 30
0.0
  0
SPLINE
  5
102
100
AcDbEntity
  8
Layer_1
 62
5
100
AcDbSpline
 70
8
 71
3
 72
8
 73
4
 74
0
 40
0
 40
0
 40
0
 40
0
 40
1
 40
1
 40
1
 40
1
 10
104.614344
 20
172.401440
 30
0.0
 10
104.256812
 20
172.851039
 30
0.0
 10
103.712564
 20
173.613034
 30
0.0
 10
103.348574
 20
174.170014
 30
0.0
  0
SPLINE
  5
103
100
AcDbEntity
  8
Layer_1
 62
5
100
AcDbSpline
 70
8
 71
3
 72
8
 73
4
 74
0
 40
0
 40
0
 40
0
 40
0
 40
1
 40
1
 40
1
 40
1
 10
103.348574
 20
174.170014
 30
0.0
 10
102.627981
 20
175.272663
 30
0.0
 10
102.197151
 20
176.303848
 30
0.0
 10
102.281585
 20
177.534687
 30
0.0
  0
SPLINE
  5
104
100
AcDbEntity
  8
Layer_1
 62
5
100
AcDbSpline
 70
8
 71
3
 72
8
 73
4
 74
0
 40
0
 40
0
 40
0
 40
0
 40
1
 40
1
 40
1
 40
1
 10
102.281585
 20
177.534687
 30
0.0
 10
102.366017
 20
178.765523
 30
0.0
 10
102.875589
 20
180.102781
 30
0.0
 10
103.778781
 20
182.166591
 30
0.0
  0
SPLINE
  5
105
100
AcDbEntity
  8
Layer_1
 62
5
100
AcDbSpline
 70
8
 71
3
 72
8
 73
4
 74
0
 40
0
 40
0
 40
0
 40
0
 40
1
 40
1
 40
1
 40
1
 10
103.778781
 20
182.166591
 30
0.0
 10
104.632279
 20
184.116868
 30
0.0
 10
105.134847
 20
185.094965
 30
0.0
 10
105.819217
 20
186.117866
 30
0.0
  0
SPLINE
  5
106
100
AcDbEntity
  8
Layer_1
 62
5
100
AcDbSpline
 70
8
 71
3
 72
8
 73
4
 74
0
 40
0
 40
0
 40
0
 40
0
 40
1
 40
1
 40
1
 40
1
 10
105.819217
 20
186.117866
 30
0.0
 10
105.947829
 20
186.310098
 30
0.0
 10
105.935482
 20
186.288406
 30
0.0
 10
105.983893
 20
186.370239
 30
0.0
  0
SPLINE
  5
107
100
AcDbEntity
  8
Layer_1
 62
5
100
AcDbSpline
 70
8
 71
3
 72
8
 73
4
 74
0
 40
0
 40
0
 40
0
 40
0
 40
1
 40
1
 40
1
 40
1
 10
105.983893
 20
186.370239
 30
0.0
 10
105.884938
 20
186.517388
 30
0.0
 10
105.759658
 20
186.659261
 30
0.0
 10
105.675002
 20
186.827244
 30
0.0
  0
SPLINE
  5
108
100
AcDbEntity
  8
Layer_1
 62
5
100
AcDbSpline
 70
8
 71
3
 72
8
 73
4
 74
0
 40
0
 40
0
 40
0
 40
0
 40
1
 40
1
 40
1
 40
1
 10
105.675002
 20
186.827244
 30
0.0
 10
105.645953
 20
186.884880
 30
0.0
 10
105.261401
 20
187.467746
 30
0.0
 10
104.961241
 20
187.842103
 30
0.0
  0
SPLINE
  5
109
100
AcDbEntity
  8
Layer_1
 62
5
100
AcDbSpline
 70
8
 71
3
 72
8
 73
4
 74
0
 40
0
 40
0
 40
0
 40
0
 40
1
 40
1
 40
1
 40
1
 10
104.961241
 20
187.842103
 30
0.0
 10
104.974986
 20
187.824866
 30
0.0
 10
104.503852
 20
188.339704
 30
0.0
 10
103.800219
 20
189.065488
 30
0.0
  0
SPLINE
  5
10a
100
AcDbEntity
  8
Layer_1
 62
5
100
AcDbSpline
 70
8
 71
3
 72
8
 73
4
 74
0
 40
0
 40
0
 40
0
 40
0
 40
1
 40
1
 40
1
 40
1
 10
103.800219
 20
189.065488
 30
0.0
 10
103.096586
 20
189.791272
 30
0.0
 10
102.095337
 20
190.814473
 30
0.0
 10
100.815082
 20
192.114933
 30
0.0
  0
SPLINE
  5
10b
100
AcDbEntity
  8
Layer_1
 62
5
100
AcDbSpline
 70
8
 71
3
 72
8
 73
4
 74
0
 40
0
 40
0
 40
0
 40
0
 40
1
 40
1
 40
1
 40
1
 10
100.815082
 20
192.114933
 30
0.0
 10
98.254566
 20
194.715860
 30
0.0
 10
94.578778
 20
198.426736
 30
0.0
 10
89.933246
 20
203.101035
 30
0.0
  0
SPLINE
  5
10c
100
AcDbEntity
  8
Layer_1
 62
5
100
AcDbSpline
 70
8
 71
3
 72
8
 73
4
 74
0
 40
0
 40
0
 40
0
 40
0
 40
1
 40
1
 40
1
 40
1
 10
89.933246
 20
203.101035
 30
0.0
 10
75.039953
 20
218.086520
 30
0.0
 10
73.576012
 20
219.482965
 30
0.0
 10
72.518893
 20
220.103204
 30
0.0
  0
SPLINE
  5
10d
100
AcDbEntity
  8
Layer_1
 62
5
100
AcDbSpline
 70
8
 71
3
 72
8
 73
4
 74
0
 40
0
 40
0
 40
0
 40
0
 40
1
 40
1
 40
1
 40
1
 10
72.518893
 20
220.103204
 30
0.0
 10
72.395954
 20
220.175335
 30
0.0
 10
72.280295
 20
220.250308
 30
0.0
 10
72.169077
 20
220.323425
 30
0.0
  0
SPLINE
  5
10e
100
AcDbEntity
  8
Layer_1
 62
5
100
AcDbSpline
 70
8
 71
3
 72
8
 73
4
 74
0
 40
0
 40
0
 40
0
 40
0
 40
1
 40
1
 40
1
 40
1
 10
72.169077
 20
220.323425
 30
0.0
 10
71.572689
 20
219.833891
 30
0.0
 10
70.788393
 20
219.289079
 30
0.0
 10
69.872369
 20
218.711731
 30
0.0
  0
SPLINE
  5
10f
100
AcDbEntity
  8
Layer_1
 62
5
100
AcDbSpline
 70
8
 71
3
 72
8
 73
4
 74
0
 40
0
 40
0
 40
0
 40
0
 40
1
 40
1
 40
1
 40
1
 10
69.872369
 20
218.711731
 30
0.0
 10
68.718855
 20
217.984704
 30
0.0
 10
67.619056
 20
217.332800
 30
0.0
 10
66.870180
 20
217.065939
 30
0.0
  0
SPLINE
  5
110
100
AcDbEntity
  8
Layer_1
 62
5
100
AcDbSpline
 70
8
 71
3
 72
8
 73
4
 74
0
 40
0
 40
0
 40
0
 40
0
 40
1
 40
1
 40
1
 40
1
 10
66.870180
 20
217.065939
 30
0.0
 10
65.796391
 20
216.683280
 30
0.0
 10
64.500926
 20
216.578114
 30
0.0
 10
63.467506
 20
216.885670
 30
0.0
  0
SPLINE
  5
111
100
AcDbEntity
  8
Layer_1
 62
5
100
AcDbSpline
 70
8
 71
3
 72
8
 73
4
 74
0
 40
0
 40
0
 40
0
 40
0
 40
1
 40
1
 40
1
 40
1
 10
63.467506
 20
216.885670
 30
0.0
 10
62.945421
 20
217.041046
 30
0.0
 10
62.439469
 20
217.291251
 30
0.0
 10
61.890408
 20
217.738775
 30
0.0
  0
SPLINE
  5
112
100
AcDbEntity
  8
Layer_1
 62
5
100
AcDbSpline
 70
8
 71
3
 72
8
 73
4
 74
0
 40
0
 40
0
 40
0
 40
0
 40
1
 40
1
 40
1
 40
1
 10
61.890408
 20
217.738775
 30
0.0
 10
61.341346
 20
218.186296
 30
0.0
 10
60.708781
 20
218.826039
 30
0.0
 10
59.710139
 20
219.875190
 30
0.0
  0
SPLINE
  5
113
100
AcDbEntity
  8
Layer_1
 62
5
100
AcDbSpline
 70
8
 71
3
 72
8
 73
4
 74
0
 40
0
 40
0
 40
0
 40
0
 40
1
 40
1
 40
1
 40
1
 10
59.710139
 20
219.875190
 30
0.0
 10
58.890993
 20
220.735796
 30
0.0
 10
58.027461
 20
221.690162
 30
0.0
 10
57.308195
 20
222.520739
 30
0.0
  0
SPLINE
  5
114
100
AcDbEntity
  8
Layer_1
 62
5
100
AcDbSpline
 70
8
 71
3
 72
8
 73
4
 74
0
 40
0
 40
0
 40
0
 40
0
 40
1
 40
1
 40
1
 40
1
 10
57.308195
 20
222.520739
 30
0.0
 10
56.588924
 20
223.351315
 30
0.0
 10
56.036304
 20
224.017256
 30
0.0
 10
55.745224
 20
224.463734
 30
0.0
  0
SPLINE
  5
115
100
AcDbEntity
  8
Layer_1
 62
5
100
AcDbSpline
 70
8
 71
3
 72
8
 73
4
 74
0
 40
0
 40
0
 40
0
 40
0
 40
1
 40
1
 40
1
 40
1
 10
55.745224
 20
224.463734
 30
0.0
 10
55.245403
 20
225.230379
 30
0.0
 10
55.048863
 20
226.236255
 30
0.0
 10
55.090900
 20
227.171159
 30
0.0
  0
SPLINE
  5
116
100
AcDbEntity
  8
Layer_1
 62
5
100
AcDbSpline
 70
8
 71
3
 72
8
 73
4
 74
0
 40
0
 40
0
 40
0
 40
0
 40
1
 40
1
 40
1
 40
1
 10
55.090900
 20
227.171159
 30
0.0
 10
55.142542
 20
228.319639
 30
0.0
 10
55.676972
 20
229.864558
 30
0.0
 10
56.364468
 20
231.479071
 30
0.0
  0
SPLINE
  5
117
100
AcDbEntity
  8
Layer_1
 62
5
100
AcDbSpline
 70
8
 71
3
 72
8
 73
4
 74
0
 40
0
 40
0
 40
0
 40
0
 40
1
 40
1
 40
1
 40
1
 10
56.364468
 20
231.479071
 30
0.0
 10
57.051964
 20
233.093583
 30
0.0
 10
57.881744
 20
234.681672
 30
0.0
 10
58.693332
 20
235.682719
 30
0.0
  0
SPLINE
  5
118
100
AcDbEntity
  8
Layer_1
 62
5
100
AcDbSpline
 70
8
 71
3
 72
8
 73
4
 74
0
 40
0
 40
0
 40
0
 40
0
 40
1
 40
1
 40
1
 40
1
 10
58.693332
 20
235.682719
 30
0.0
 10
58.740364
 20
235.740726
 30
0.0
 10
58.774252
 20
235.789781
 30
0.0
 10
58.816103
 20
235.845451
 30
0.0
  0
SPLINE
  5
119
100
AcDbEntity
  8
Layer_1
 62
5
100
AcDbSpline
 70
8
 71
3
 72
8
 73
4
 74
0
 40
0
 40
0
 40
0
 40
0
 40
1
 40
1
 40
1
 40
1
 10
58.816103
 20
235.845451
 30
0.0
 10
58.748471
 20
235.975600
 30
0.0
 10
58.676090
 20
236.113881
 30
0.0
 10
58.563241
 20
236.309762
 30
0.0
  0
SPLINE
  5
11a
100
AcDbEntity
  8
Layer_1
 62
5
100
AcDbSpline
 70
8
 71
3
 72
8
 73
4
 74
0
 40
0
 40
0
 40
0
 40
0
 40
1
 40
1
 40
1
 40
1
 10
58.563241
 20
236.309762
 30
0.0
 10
58.271645
 20
236.815917
 30
0.0
 10
57.853873
 20
237.496526
 30
0.0
 10
57.395401
 20
238.214268
 30
0.0
  0
SPLINE
  5
11b
100
AcDbEntity
  8
Layer_1
 62
5
100
AcDbSpline
 70
8
 71
3
 72
8
 73
4
 74
0
 40
0
 40
0
 40
0
 40
0
 40
1
 40
1
 40
1
 40
1
 10
57.395401
 20
238.214268
 30
0.0
 10
56.478450
 20
239.649754
 30
0.0
 10
55.375497
 20
241.263923
 30
0.0
 10
54.812210
 20
241.958965
 30
0.0
  0
SPLINE
  5
11c
100
AcDbEntity
  8
Layer_1
 62
5
100
AcDbSpline
 70
8
 71
3
 72
8
 73
4
 74
0
 40
0
 40
0
 40
0
 40
0
 40
1
 40
1
 40
1
 40
1
 10
54.812210
 20
241.958965
 30
0.0
 10
54.461541
 20
242.391658
 30
0.0
 10
53.786867
 20
243.110585
 30
0.0
 10
53.413917
 20
243.451775
 30
0.0
  0
SPLINE
  5
11d
100
AcDbEntity
  8
Layer_1
 62
5
100
AcDbSpline
 70
8
 71
3
 72
8
 73
4
 74
0
 40
0
 40
0
 40
0
 40
0
 40
1
 40
1
 40
1
 40
1
 10
53.413917
 20
243.451775
 30
0.0
 10
53.413751
 20
243.451941
 30
0.0
 10
53.413584
 20
243.452108
 30
0.0
 10
53.413418
 20
243.452274
 30
0.0
  0
SPLINE
  5
11e
100
AcDbEntity
  8
Layer_1
 62
5
100
AcDbSpline
 70
8
 71
3
 72
8
 73
4
 74
0
 40
0
 40
0
 40
0
 40
0
 40
1
 40
1
 40
1
 40
1
 10
52.640702
 20
244.159704
 30
0.0
 10
52.403502
 20
244.376969
 30
0.0
 10
52.315286
 20
244.712880
 30
0.0
 10
52.415126
 20
245.018658
 30
0.0
  0
LWPOLYLINE
  5
11f
100
AcDbEntity
  8
Layer_1
 62
5
100
AcDbPolyline
 90
2
 70
1
 10
53.413418
 20
243.452274
 30
0.0
 10
52.640702
 20
244.159704
 30
0.0
  0
SPLINE
  5
120
100
AcDbEntity
  8
Layer_1
 62
5
100
AcDbSpline
 70
8
 71
3
 72
8
 73
4
 74
0
 40
0
 40
0
 40
0
 40
0
 40
1
 40
1
 40
1
 40
1
 10
52.576880
 20
245.512687
 30
0.0
 10
52.611955
 20
245.619833
 30
0.0
 10
52.644993
 20
245.742878
 30
0.0
 10
52.664577
 20
245.833272
 30
0.0
  0
SPLINE
  5
121
100
AcDbEntity
  8
Layer_1
 62
5
100
AcDbSpline
 70
8
 71
3
 72
8
 73
4
 74
0
 40
0
 40
0
 40
0
 40
0
 40
1
 40
1
 40
1
 40
1
 10
52.664577
 20
245.833272
 30
0.0
 10
52.665650
 20
245.837837
 30
0.0
 10
52.664752
 20
245.841080
 30
0.0
 10
52.665550
 20
245.845919
 30
0.0
  0
SPLINE
  5
122
100
AcDbEntity
  8
Layer_1
 62
5
100
AcDbSpline
 70
8
 71
3
 72
8
 73
4
 74
0
 40
0
 40
0
 40
0
 40
0
 40
1
 40
1
 40
1
 40
1
 10
52.665550
 20
245.845919
 30
0.0
 10
52.643743
 20
245.901601
 30
0.0
 10
52.619950
 20
245.962498
 30
0.0
 10
52.581752
 20
246.052497
 30
0.0
  0
SPLINE
  5
123
100
AcDbEntity
  8
Layer_1
 62
5
100
AcDbSpline
 70
8
 71
3
 72
8
 73
4
 74
0
 40
0
 40
0
 40
0
 40
0
 40
1
 40
1
 40
1
 40
1
 10
52.581752
 20
246.052497
 30
0.0
 10
52.484825
 20
246.280850
 30
0.0
 10
52.341530
 20
246.602273
 30
0.0
 10
52.166647
 20
246.985014
 30
0.0
  0
SPLINE
  5
124
100
AcDbEntity
  8
Layer_1
 62
5
100
AcDbSpline
 70
8
 71
3
 72
8
 73
4
 74
0
 40
0
 40
0
 40
0
 40
0
 40
1
 40
1
 40
1
 40
1
 10
52.166647
 20
246.985014
 30
0.0
 10
51.816886
 20
247.750502
 30
0.0
 10
51.339084
 20
248.764205
 30
0.0
 10
50.829744
 20
249.825452
 30
0.0
  0
SPLINE
  5
125
100
AcDbEntity
  8
Layer_1
 62
5
100
AcDbSpline
 70
8
 71
3
 72
8
 73
4
 74
0
 40
0
 40
0
 40
0
 40
0
 40
1
 40
1
 40
1
 40
1
 10
50.829744
 20
249.825452
 30
0.0
 10
49.811061
 20
251.947943
 30
0.0
 10
48.650617
 20
254.286472
 30
0.0
 10
48.149601
 20
255.190122
 30
0.0
  0
SPLINE
  5
126
100
AcDbEntity
  8
Layer_1
 62
5
100
AcDbSpline
 70
8
 71
3
 72
8
 73
4
 74
0
 40
0
 40
0
 40
0
 40
0
 40
1
 40
1
 40
1
 40
1
 10
48.149601
 20
255.190122
 30
0.0
 10
47.403222
 20
256.536313
 30
0.0
 10
46.465728
 20
258.014468
 30
0.0
 10
45.704779
 20
259.049799
 30
0.0
  0
SPLINE
  5
127
100
AcDbEntity
  8
Layer_1
 62
5
100
AcDbSpline
 70
8
 71
3
 72
8
 73
4
 74
0
 40
0
 40
0
 40
0
 40
0
 40
1
 40
1
 40
1
 40
1
 10
45.704779
 20
259.049799
 30
0.0
 10
45.259161
 20
259.656099
 30
0.0
 10
44.985458
 20
259.888977
 30
0.0
 10
44.849726
 20
260.462221
 30
0.0
  0
SPLINE
  5
128
100
AcDbEntity
  8
Layer_1
 62
5
100
AcDbSpline
 70
8
 71
3
 72
8
 73
4
 74
0
 40
0
 40
0
 40
0
 40
0
 40
1
 40
1
 40
1
 40
1
 10
44.849726
 20
260.462221
 30
0.0
 10
44.781860
 20
260.748846
 30
0.0
 10
44.868303
 20
261.151104
 30
0.0
 10
45.006120
 20
261.365997
 30
0.0
  0
SPLINE
  5
129
100
AcDbEntity
  8
Layer_1
 62
5
100
AcDbSpline
 70
8
 71
3
 72
8
 73
4
 74
0
 40
0
 40
0
 40
0
 40
0
 40
1
 40
1
 40
1
 40
1
 10
45.006120
 20
261.365997
 30
0.0
 10
45.143937
 20
261.580889
 30
0.0
 10
45.267031
 20
261.683085
 30
0.0
 10
45.387609
 20
261.803023
 30
0.0
  0
SPLINE
  5
12a
100
AcDbEntity
  8
Layer_1
 62
5
100
AcDbSpline
 70
8
 71
3
 72
8
 73
4
 74
0
 40
0
 40
0
 40
0
 40
0
 40
1
 40
1
 40
1
 40
1
 10
45.387609
 20
261.803023
 30
0.0
 10
45.520197
 20
261.935113
 30
0.0
 10
45.653038
 20
262.054383
 30
0.0
 10
45.779317
 20
262.155768
 30
0.0
  0
SPLINE
  5
12b
100
AcDbEntity
  8
Layer_1
 62
5
100
AcDbSpline
 70
8
 71
3
 72
8
 73
4
 74
0
 40
0
 40
0
 40
0
 40
0
 40
1
 40
1
 40
1
 40
1
 10
45.779317
 20
262.155768
 30
0.0
 10
45.842471
 20
262.206449
 30
0.0
 10
45.903340
 20
262.252251
 30
0.0
 10
45.973229
 20
262.298033
 30
0.0
  0
SPLINE
  5
12c
100
AcDbEntity
  8
Layer_1
 62
5
100
AcDbSpline
 70
8
 71
3
 72
8
 73
4
 74
0
 40
0
 40
0
 40
0
 40
0
 40
1
 40
1
 40
1
 40
1
 10
45.973229
 20
262.298033
 30
0.0
 10
46.043115
 20
262.343822
 30
0.0
 10
46.063959
 20
262.400138
 30
0.0
 10
46.337173
 20
262.457352
 30
0.0
  0
SPLINE
  5
12d
100
AcDbEntity
  8
Layer_1
 62
5
100
AcDbSpline
 70
8
 71
3
 72
8
 73
4
 74
0
 40
0
 40
0
 40
0
 40
0
 40
1
 40
1
 40
1
 40
1
 10
46.337173
 20
262.457352
 30
0.0
 10
46.757482
 20
262.545451
 30
0.0
 10
46.774006
 20
262.437648
 30
0.0
 10
46.846309
 20
262.410091
 30
0.0
  0
SPLINE
  5
12e
100
AcDbEntity
  8
Layer_1
 62
5
100
AcDbSpline
 70
8
 71
3
 72
8
 73
4
 74
0
 40
0
 40
0
 40
0
 40
0
 40
1
 40
1
 40
1
 40
1
 10
46.846309
 20
262.410091
 30
0.0
 10
46.918613
 20
262.382539
 30
0.0
 10
46.968258
 20
262.357375
 30
0.0
 10
47.020728
 20
262.330189
 30
0.0
  0
SPLINE
  5
12f
100
AcDbEntity
  8
Layer_1
 62
5
100
AcDbSpline
 70
8
 71
3
 72
8
 73
4
 74
0
 40
0
 40
0
 40
0
 40
0
 40
1
 40
1
 40
1
 40
1
 10
47.020728
 20
262.330189
 30
0.0
 10
47.125672
 20
262.275824
 30
0.0
 10
47.233039
 20
262.212615
 30
0.0
 10
47.356418
 20
262.135794
 30
0.0
  0
SPLINE
  5
130
100
AcDbEntity
  8
Layer_1
 62
5
100
AcDbSpline
 70
8
 71
3
 72
8
 73
4
 74
0
 40
0
 40
0
 40
0
 40
0
 40
1
 40
1
 40
1
 40
1
 10
47.356418
 20
262.135794
 30
0.0
 10
47.603170
 20
261.982147
 30
0.0
 10
47.904677
 20
261.777961
 30
0.0
 10
48.222189
 20
261.548705
 30
0.0
  0
SPLINE
  5
131
100
AcDbEntity
  8
Layer_1
 62
5
100
AcDbSpline
 70
8
 71
3
 72
8
 73
4
 74
0
 40
0
 40
0
 40
0
 40
0
 40
1
 40
1
 40
1
 40
1
 10
48.222189
 20
261.548705
 30
0.0
 10
49.889653
 20
260.344737
 30
0.0
 10
51.917819
 20
259.149674
 30
0.0
 10
54.461402
 20
257.880989
 30
0.0
  0
SPLINE
  5
132
100
AcDbEntity
  8
Layer_1
 62
5
100
AcDbSpline
 70
8
 71
3
 72
8
 73
4
 74
0
 40
0
 40
0
 40
0
 40
0
 40
1
 40
1
 40
1
 40
1
 10
54.461402
 20
257.880989
 30
0.0
 10
55.666500
 20
257.279908
 30
0.0
 10
57.365664
 20
256.457765
 30
0.0
 10
58.796109
 20
255.777701
 30
0.0
  0
SPLINE
  5
133
100
AcDbEntity
  8
Layer_1
 62
5
100
AcDbSpline
 70
8
 71
3
 72
8
 73
4
 74
0
 40
0
 40
0
 40
0
 40
0
 40
1
 40
1
 40
1
 40
1
 10
58.796109
 20
255.777701
 30
0.0
 10
59.511334
 20
255.437671
 30
0.0
 10
60.159921
 20
255.132903
 30
0.0
 10
60.644585
 20
254.909494
 30
0.0
  0
SPLINE
  5
134
100
AcDbEntity
  8
Layer_1
 62
5
100
AcDbSpline
 70
8
 71
3
 72
8
 73
4
 74
0
 40
0
 40
0
 40
0
 40
0
 40
1
 40
1
 40
1
 40
1
 10
60.644585
 20
254.909494
 30
0.0
 10
60.886917
 20
254.797790
 30
0.0
 10
61.089000
 20
254.706438
 30
0.0
 10
61.234109
 20
254.642501
 30
0.0
  0
SPLINE
  5
135
100
AcDbEntity
  8
Layer_1
 62
5
100
AcDbSpline
 70
8
 71
3
 72
8
 73
4
 74
0
 40
0
 40
0
 40
0
 40
0
 40
1
 40
1
 40
1
 40
1
 10
61.234109
 20
254.642501
 30
0.0
 10
61.317076
 20
254.605932
 30
0.0
 10
61.299463
 20
254.611173
 30
0.0
 10
61.337886
 20
254.596218
 30
0.0
  0
SPLINE
  5
136
100
AcDbEntity
  8
Layer_1
 62
5
100
AcDbSpline
 70
8
 71
3
 72
8
 73
4
 74
0
 40
0
 40
0
 40
0
 40
0
 40
1
 40
1
 40
1
 40
1
 10
61.337886
 20
254.596218
 30
0.0
 10
61.337970
 20
254.596183
 30
0.0
 10
61.338327
 20
254.596774
 30
0.0
 10
61.338385
 20
254.596717
 30
0.0
  0
SPLINE
  5
137
100
AcDbEntity
  8
Layer_1
 62
5
100
AcDbSpline
 70
8
 71
3
 72
8
 73
4
 74
0
 40
0
 40
0
 40
0
 40
0
 40
1
 40
1
 40
1
 40
1
 10
61.338385
 20
254.596717
 30
0.0
 10
61.423330
 20
254.610310
 30
0.0
 10
61.547827
 20
254.637804
 30
0.0
 10
61.658970
 20
254.670774
 30
0.0
  0
SPLINE
  5
138
100
AcDbEntity
  8
Layer_1
 62
5
100
AcDbSpline
 70
8
 71
3
 72
8
 73
4
 74
0
 40
0
 40
0
 40
0
 40
0
 40
1
 40
1
 40
1
 40
1
 10
61.658970
 20
254.670774
 30
0.0
 10
61.659302
 20
254.670774
 30
0.0
 10
61.659635
 20
254.670774
 30
0.0
 10
61.659968
 20
254.670774
 30
0.0
  0
LWPOLYLINE
  5
139
100
AcDbEntity
  8
Layer_1
 62
5
100
AcDbPolyline
 90
2
 70
1
 10
52.415126
 20
245.018658
 30
0.0
 10
52.576880
 20
245.512687
 30
0.0
  0
SPLINE
  5
13a
100
AcDbEntity
  8
Layer_1
 62
5
100
AcDbSpline
 70
8
 71
3
 72
8
 73
4
 74
0
 40
0
 40
0
 40
0
 40
0
 40
1
 40
1
 40
1
 40
1
 10
62.192973
 20
254.828630
 30
0.0
 10
62.491210
 20
254.916881
 30
0.0
 10
62.813703
 20
254.828758
 30
0.0
 10
63.025618
 20
254.601105
 30
0.0
  0
LWPOLYLINE
  5
13b
100
AcDbEntity
  8
Layer_1
 62
5
100
AcDbPolyline
 90
2
 70
1
 10
61.659968
 20
254.670774
 30
0.0
 10
62.192973
 20
254.828630
 30
0.0
  0
SPLINE
  5
13c
100
AcDbEntity
  8
Layer_1
 62
5
100
AcDbSpline
 70
8
 71
3
 72
8
 73
4
 74
0
 40
0
 40
0
 40
0
 40
0
 40
1
 40
1
 40
1
 40
1
 10
63.670185
 20
253.907794
 30
0.0
 10
64.844027
 20
252.644818
 30
0.0
 10
66.985239
 20
251.057922
 30
0.0
 10
70.351296
 20
249.024486
 30
0.0
  0
LWPOLYLINE
  5
13d
100
AcDbEntity
  8
Layer_1
 62
5
100
AcDbPolyline
 90
2
 70
1
 10
63.025618
 20
254.601105
 30
0.0
 10
63.670185
 20
253.907794
 30
0.0
  0
SPLINE
  5
13e
100
AcDbEntity
  8
Layer_1
 62
5
100
AcDbSpline
 70
8
 71
3
 72
8
 73
4
 74
0
 40
0
 40
0
 40
0
 40
0
 40
1
 40
1
 40
1
 40
1
 10
71.171770
 20
248.284889
 30
0.0
 10
72.370330
 20
249.171166
 30
0.0
 10
73.203865
 20
249.704775
 30
0.0
 10
74.101364
 20
250.147494
 30
0.0
  0
SPLINE
  5
13f
100
AcDbEntity
  8
Layer_1
 62
5
100
AcDbSpline
 70
8
 71
3
 72
8
 73
4
 74
0
 40
0
 40
0
 40
0
 40
0
 40
1
 40
1
 40
1
 40
1
 10
74.101364
 20
250.147494
 30
0.0
 10
74.804089
 20
250.494132
 30
0.0
 10
75.772944
 20
250.902734
 30
0.0
 10
76.686503
 20
251.255411
 30
0.0
  0
SPLINE
  5
140
100
AcDbEntity
  8
Layer_1
 62
5
100
AcDbSpline
 70
8
 71
3
 72
8
 73
4
 74
0
 40
0
 40
0
 40
0
 40
0
 40
1
 40
1
 40
1
 40
1
 10
76.686503
 20
251.255411
 30
0.0
 10
77.600062
 20
251.608088
 30
0.0
 10
78.405813
 20
251.896122
 30
0.0
 10
78.952516
 20
252.013020
 30
0.0
  0
SPLINE
  5
141
100
AcDbEntity
  8
Layer_1
 62
5
100
AcDbSpline
 70
8
 71
3
 72
8
 73
4
 74
0
 40
0
 40
0
 40
0
 40
0
 40
1
 40
1
 40
1
 40
1
 10
78.952516
 20
252.013020
 30
0.0
 10
80.042055
 20
252.246003
 30
0.0
 10
81.239914
 20
252.222751
 30
0.0
 10
82.171514
 20
251.795239
 30
0.0
  0
SPLINE
  5
142
100
AcDbEntity
  8
Layer_1
 62
5
100
AcDbSpline
 70
8
 71
3
 72
8
 73
4
 74
0
 40
0
 40
0
 40
0
 40
0
 40
1
 40
1
 40
1
 40
1
 10
82.171514
 20
251.795239
 30
0.0
 10
82.639505
 20
251.580471
 30
0.0
 10
83.111001
 20
251.216858
 30
0.0
 10
83.745201
 20
250.712656
 30
0.0
  0
SPLINE
  5
143
100
AcDbEntity
  8
Layer_1
 62
5
100
AcDbSpline
 70
8
 71
3
 72
8
 73
4
 74
0
 40
0
 40
0
 40
0
 40
0
 40
1
 40
1
 40
1
 40
1
 10
83.745201
 20
250.712656
 30
0.0
 10
84.379404
 20
250.208457
 30
0.0
 10
85.116344
 20
249.579101
 30
0.0
 10
85.856769
 20
248.915827
 30
0.0
  0
SPLINE
  5
144
100
AcDbEntity
  8
Layer_1
 62
5
100
AcDbSpline
 70
8
 71
3
 72
8
 73
4
 74
0
 40
0
 40
0
 40
0
 40
0
 40
1
 40
1
 40
1
 40
1
 10
85.856769
 20
248.915827
 30
0.0
 10
87.337621
 20
247.589276
 30
0.0
 10
88.800245
 20
246.174941
 30
0.0
 10
89.511339
 20
245.251528
 30
0.0
  0
SPLINE
  5
145
100
AcDbEntity
  8
Layer_1
 62
5
100
AcDbSpline
 70
8
 71
3
 72
8
 73
4
 74
0
 40
0
 40
0
 40
0
 40
0
 40
1
 40
1
 40
1
 40
1
 10
89.511339
 20
245.251528
 30
0.0
 10
90.505977
 20
243.959883
 30
0.0
 10
90.720730
 20
242.287540
 30
0.0
 10
90.190997
 20
240.584541
 30
0.0
  0
SPLINE
  5
146
100
AcDbEntity
  8
Layer_1
 62
5
100
AcDbSpline
 70
8
 71
3
 72
8
 73
4
 74
0
 40
0
 40
0
 40
0
 40
0
 40
1
 40
1
 40
1
 40
1
 10
90.190997
 20
240.584541
 30
0.0
 10
89.992326
 20
239.945843
 30
0.0
 10
89.546028
 20
239.119710
 30
0.0
 10
88.991487
 20
238.174802
 30
0.0
  0
SPLINE
  5
147
100
AcDbEntity
  8
Layer_1
 62
5
100
AcDbSpline
 70
8
 71
3
 72
8
 73
4
 74
0
 40
0
 40
0
 40
0
 40
0
 40
1
 40
1
 40
1
 40
1
 10
88.991487
 20
238.174802
 30
0.0
 10
88.436946
 20
237.229894
 30
0.0
 10
87.788220
 20
236.231781
 30
0.0
 10
87.214633
 20
235.482965
 30
0.0
  0
SPLINE
  5
148
100
AcDbEntity
  8
Layer_1
 62
5
100
AcDbSpline
 70
8
 71
3
 72
8
 73
4
 74
0
 40
0
 40
0
 40
0
 40
0
 40
1
 40
1
 40
1
 40
1
 10
87.214633
 20
235.482965
 30
0.0
 10
87.082107
 20
235.309928
 30
0.0
 10
86.979832
 20
235.172620
 30
0.0
 10
86.877969
 20
235.036192
 30
0.0
  0
SPLINE
  5
149
100
AcDbEntity
  8
Layer_1
 62
5
100
AcDbSpline
 70
8
 71
3
 72
8
 73
4
 74
0
 40
0
 40
0
 40
0
 40
0
 40
1
 40
1
 40
1
 40
1
 10
86.877969
 20
235.036192
 30
0.0
 10
86.954934
 20
234.917868
 30
0.0
 10
87.032082
 20
234.799311
 30
0.0
 10
87.132781
 20
234.654709
 30
0.0
  0
SPLINE
  5
14a
100
AcDbEntity
  8
Layer_1
 62
5
100
AcDbSpline
 70
8
 71
3
 72
8
 73
4
 74
0
 40
0
 40
0
 40
0
 40
0
 40
1
 40
1
 40
1
 40
1
 10
87.132781
 20
234.654709
 30
0.0
 10
87.409458
 20
234.257402
 30
0.0
 10
87.750049
 20
233.801295
 30
0.0
 10
87.993681
 20
233.509280
 30
0.0
  0
SPLINE
  5
14b
100
AcDbEntity
  8
Layer_1
 62
5
100
AcDbSpline
 70
8
 71
3
 72
8
 73
4
 74
0
 40
0
 40
0
 40
0
 40
0
 40
1
 40
1
 40
1
 40
1
 10
87.993681
 20
233.509280
 30
0.0
 10
88.013562
 20
233.485407
 30
0.0
 10
88.647002
 20
232.813901
 30
0.0
 10
89.548854
 20
231.893689
 30
0.0
  0
SPLINE
  5
14c
100
AcDbEntity
  8
Layer_1
 62
5
100
AcDbSpline
 70
8
 71
3
 72
8
 73
4
 74
0
 40
0
 40
0
 40
0
 40
0
 40
1
 40
1
 40
1
 40
1
 10
89.548854
 20
231.893689
 30
0.0
 10
90.450709
 20
230.973475
 30
0.0
 10
91.687365
 20
229.721402
 30
0.0
 10
93.146901
 20
228.249843
 30
0.0
  0
SPLINE
  5
14d
100
AcDbEntity
  8
Layer_1
 62
5
100
AcDbSpline
 70
8
 71
3
 72
8
 73
4
 74
0
 40
0
 40
0
 40
0
 40
0
 40
1
 40
1
 40
1
 40
1
 10
93.146901
 20
228.249843
 30
0.0
 10
96.065971
 20
225.306726
 30
0.0
 10
99.876248
 20
221.485323
 30
0.0
 10
103.685730
 20
217.676888
 30
0.0
  0
SPLINE
  5
14e
100
AcDbEntity
  8
Layer_1
 62
5
100
AcDbSpline
 70
8
 71
3
 72
8
 73
4
 74
0
 40
0
 40
0
 40
0
 40
0
 40
1
 40
1
 40
1
 40
1
 10
103.685730
 20
217.676888
 30
0.0
 10
107.495190
 20
213.868427
 30
0.0
 10
111.304510
 20
210.072378
 30
0.0
 10
114.222629
 20
207.179952
 30
0.0
  0
SPLINE
  5
14f
100
AcDbEntity
  8
Layer_1
 62
5
100
AcDbSpline
 70
8
 71
3
 72
8
 73
4
 74
0
 40
0
 40
0
 40
0
 40
0
 40
1
 40
1
 40
1
 40
1
 10
114.222629
 20
207.179952
 30
0.0
 10
115.681676
 20
205.733726
 30
0.0
 10
116.918193
 20
204.513275
 30
0.0
 10
117.819214
 20
203.631112
 30
0.0
  0
SPLINE
  5
150
100
AcDbEntity
  8
Layer_1
 62
5
100
AcDbSpline
 70
8
 71
3
 72
8
 73
4
 74
0
 40
0
 40
0
 40
0
 40
0
 40
1
 40
1
 40
1
 40
1
 10
117.819214
 20
203.631112
 30
0.0
 10
118.269724
 20
203.190031
 30
0.0
 10
118.636056
 20
202.833677
 30
0.0
 10
118.903243
 20
202.577266
 30
0.0
  0
SPLINE
  5
151
100
AcDbEntity
  8
Layer_1
 62
5
100
AcDbSpline
 70
8
 71
3
 72
8
 73
4
 74
0
 40
0
 40
0
 40
0
 40
0
 40
1
 40
1
 40
1
 40
1
 10
118.903243
 20
202.577266
 30
0.0
 10
119.170456
 20
202.320880
 30
0.0
 10
119.388591
 20
202.127141
 30
0.0
 10
119.353903
 20
202.154845
 30
0.0
  0
SPLINE
  5
152
100
AcDbEntity
  8
Layer_1
 62
5
100
AcDbSpline
 70
8
 71
3
 72
8
 73
4
 74
0
 40
0
 40
0
 40
0
 40
0
 40
1
 40
1
 40
1
 40
1
 10
119.353903
 20
202.154845
 30
0.0
 10
119.728147
 20
201.855690
 30
0.0
 10
120.318786
 20
201.477739
 30
0.0
 10
120.331249
 20
201.471777
 30
0.0
  0
SPLINE
  5
153
100
AcDbEntity
  8
Layer_1
 62
5
100
AcDbSpline
 70
8
 71
3
 72
8
 73
4
 74
0
 40
0
 40
0
 40
0
 40
0
 40
1
 40
1
 40
1
 40
1
 10
120.331249
 20
201.471777
 30
0.0
 10
120.493919
 20
201.393955
 30
0.0
 10
120.630259
 20
201.271460
 30
0.0
 10
120.772172
 20
201.177990
 30
0.0
  0
SPLINE
  5
154
100
AcDbEntity
  8
Layer_1
 62
5
100
AcDbSpline
 70
8
 71
3
 72
8
 73
4
 74
0
 40
0
 40
0
 40
0
 40
0
 40
1
 40
1
 40
1
 40
1
 10
120.772172
 20
201.177990
 30
0.0
 10
120.837167
 20
201.216493
 30
0.0
 10
120.778608
 20
201.185424
 30
0.0
 10
120.879848
 20
201.256430
 30
0.0
  0
SPLINE
  5
155
100
AcDbEntity
  8
Layer_1
 62
5
100
AcDbSpline
 70
8
 71
3
 72
8
 73
4
 74
0
 40
0
 40
0
 40
0
 40
0
 40
1
 40
1
 40
1
 40
1
 10
120.879848
 20
201.256430
 30
0.0
 10
121.791718
 20
201.897117
 30
0.0
 10
123.301970
 20
202.659039
 30
0.0
 10
125.294457
 20
203.523421
 30
0.0
  0
SPLINE
  5
156
100
AcDbEntity
  8
Layer_1
 62
5
100
AcDbSpline
 70
8
 71
3
 72
8
 73
4
 74
0
 40
0
 40
0
 40
0
 40
0
 40
1
 40
1
 40
1
 40
1
 10
125.294457
 20
203.523421
 30
0.0
 10
127.537428
 20
204.496464
 30
0.0
 10
128.601249
 20
204.844883
 30
0.0
 10
129.687631
 20
204.870557
 30
0.0
  0
SPLINE
  5
157
100
AcDbEntity
  8
Layer_1
 62
5
100
AcDbSpline
 70
8
 71
3
 72
8
 73
4
 74
0
 40
0
 40
0
 40
0
 40
0
 40
1
 40
1
 40
1
 40
1
 10
129.687631
 20
204.870557
 30
0.0
 10
130.380335
 20
204.886923
 30
0.0
 10
131.021618
 20
204.809705
 30
0.0
 10
131.684216
 20
204.525610
 30
0.0
  0
SPLINE
  5
158
100
AcDbEntity
  8
Layer_1
 62
5
100
AcDbSpline
 70
8
 71
3
 72
8
 73
4
 74
0
 40
0
 40
0
 40
0
 40
0
 40
1
 40
1
 40
1
 40
1
 10
131.684216
 20
204.525610
 30
0.0
 10
132.346817
 20
204.241512
 30
0.0
 10
133.018537
 20
203.792502
 30
0.0
 10
134.006261
 20
203.078596
 30
0.0
  0
SPLINE
  5
159
100
AcDbEntity
  8
Layer_1
 62
5
100
AcDbSpline
 70
8
 71
3
 72
8
 73
4
 74
0
 40
0
 40
0
 40
0
 40
0
 40
1
 40
1
 40
1
 40
1
 10
134.006261
 20
203.078596
 30
0.0
 10
135.348303
 20
202.108602
 30
0.0
 10
136.764549
 20
200.798093
 30
0.0
 10
137.936585
 20
199.516603
 30
0.0
  0
SPLINE
  5
15a
100
AcDbEntity
  8
Layer_1
 62
5
100
AcDbSpline
 70
8
 71
3
 72
8
 73
4
 74
0
 40
0
 40
0
 40
0
 40
0
 40
1
 40
1
 40
1
 40
1
 10
137.936585
 20
199.516603
 30
0.0
 10
139.108620
 20
198.235113
 30
0.0
 10
140.029817
 20
197.066879
 30
0.0
 10
140.392610
 20
196.021846
 30
0.0
  0
SPLINE
  5
15b
100
AcDbEntity
  8
Layer_1
 62
5
100
AcDbSpline
 70
8
 71
3
 72
8
 73
4
 74
0
 40
0
 40
0
 40
0
 40
0
 40
1
 40
1
 40
1
 40
1
 10
140.392610
 20
196.021846
 30
0.0
 10
140.859723
 20
194.676310
 30
0.0
 10
140.629132
 20
193.022259
 30
0.0
 10
139.920503
 20
191.593592
 30
0.0
  0
SPLINE
  5
15c
100
AcDbEntity
  8
Layer_1
 62
5
100
AcDbSpline
 70
8
 71
3
 72
8
 73
4
 74
0
 40
0
 40
0
 40
0
 40
0
 40
1
 40
1
 40
1
 40
1
 10
139.920503
 20
191.593592
 30
0.0
 10
139.812869
 20
191.376599
 30
0.0
 10
139.635517
 20
191.082433
 30
0.0
 10
139.376292
 20
190.654739
 30
0.0
  0
SPLINE
  5
15d
100
AcDbEntity
  8
Layer_1
 62
5
100
AcDbSpline
 70
8
 71
3
 72
8
 73
4
 74
0
 40
0
 40
0
 40
0
 40
0
 40
1
 40
1
 40
1
 40
1
 10
139.376292
 20
190.654739
 30
0.0
 10
139.117062
 20
190.227044
 30
0.0
 10
138.794401
 20
189.705970
 30
0.0
 10
138.467644
 20
189.190673
 30
0.0
  0
SPLINE
  5
15e
100
AcDbEntity
  8
Layer_1
 62
5
100
AcDbSpline
 70
8
 71
3
 72
8
 73
4
 74
0
 40
0
 40
0
 40
0
 40
0
 40
1
 40
1
 40
1
 40
1
 10
138.467644
 20
189.190673
 30
0.0
 10
137.421083
 20
187.540244
 30
0.0
 10
136.920239
 20
186.822627
 30
0.0
 10
136.118804
 20
185.789461
 30
0.0
  0
SPLINE
  5
15f
100
AcDbEntity
  8
Layer_1
 62
5
100
AcDbSpline
 70
8
 71
3
 72
8
 73
4
 74
0
 40
0
 40
0
 40
0
 40
0
 40
1
 40
1
 40
1
 40
1
 10
136.118804
 20
185.789461
 30
0.0
 10
136.198049
 20
185.643282
 30
0.0
 10
136.283112
 20
185.478250
 30
0.0
 10
136.365820
 20
185.302736
 30
0.0
  0
SPLINE
  5
160
100
AcDbEntity
  8
Layer_1
 62
5
100
AcDbSpline
 70
8
 71
3
 72
8
 73
4
 74
0
 40
0
 40
0
 40
0
 40
0
 40
1
 40
1
 40
1
 40
1
 10
136.365820
 20
185.302736
 30
0.0
 10
136.497394
 20
185.023527
 30
0.0
 10
136.799874
 20
184.526106
 30
0.0
 10
136.910520
 20
184.383858
 30
0.0
  0
SPLINE
  5
161
100
AcDbEntity
  8
Layer_1
 62
5
100
AcDbSpline
 70
8
 71
3
 72
8
 73
4
 74
0
 40
0
 40
0
 40
0
 40
0
 40
1
 40
1
 40
1
 40
1
 10
136.910520
 20
184.383858
 30
0.0
 10
137.987665
 20
182.999050
 30
0.0
 10
138.461189
 20
181.544788
 30
0.0
 10
138.457901
 20
179.680332
 30
0.0
  0
SPLINE
  5
162
100
AcDbEntity
  8
Layer_1
 62
5
100
AcDbSpline
 70
8
 71
3
 72
8
 73
4
 74
0
 40
0
 40
0
 40
0
 40
0
 40
1
 40
1
 40
1
 40
1
 10
138.457901
 20
179.680332
 30
0.0
 10
138.455356
 20
178.234820
 30
0.0
 10
138.186837
 20
176.958172
 30
0.0
 10
137.617461
 20
175.744163
 30
0.0
  0
LWPOLYLINE
  5
163
100
AcDbEntity
  8
Layer_1
 62
5
100
AcDbPolyline
 90
3
 70
1
 10
70.351296
 20
249.024486
 30
0.0
 10
71.353002
 20
248.419373
 30
0.0
 10
71.171770
 20
248.284889
 30
0.0
  0
SPLINE
  5
164
100
AcDbEntity
  8
Layer_1
 62
5
100
AcDbSpline
 70
8
 71
3
 72
8
 73
4
 74
0
 40
0
 40
0
 40
0
 40
0
 40
1
 40
1
 40
1
 40
1
 10
137.803577
 20
175.376806
 30
0.0
 10
138.176021
 20
174.959711
 30
0.0
 10
138.463169
 20
174.575870
 30
0.0
 10
138.619164
 20
174.105187
 30
0.0
  0
SPLINE
  5
165
100
AcDbEntity
  8
Layer_1
 62
5
100
AcDbSpline
 70
8
 71
3
 72
8
 73
4
 74
0
 40
0
 40
0
 40
0
 40
0
 40
1
 40
1
 40
1
 40
1
 10
138.619164
 20
174.105187
 30
0.0
 10
138.775161
 20
173.634507
 30
0.0
 10
138.760064
 20
173.149992
 30
0.0
 10
138.679578
 20
172.653301
 30
0.0
  0
SPLINE
  5
166
100
AcDbEntity
  8
Layer_1
 62
5
100
AcDbSpline
 70
8
 71
3
 72
8
 73
4
 74
0
 40
0
 40
0
 40
0
 40
0
 40
1
 40
1
 40
1
 40
1
 10
138.679578
 20
172.653301
 30
0.0
 10
138.501862
 20
171.556510
 30
0.0
 10
137.876664
 20
170.571214
 30
0.0
 10
137.064479
 20
169.808481
 30
0.0
  0
SPLINE
  5
167
100
AcDbEntity
  8
Layer_1
 62
5
100
AcDbSpline
 70
8
 71
3
 72
8
 73
4
 74
0
 40
0
 40
0
 40
0
 40
0
 40
1
 40
1
 40
1
 40
1
 10
137.064479
 20
169.808481
 30
0.0
 10
136.252300
 20
169.045743
 30
0.0
 10
135.236296
 20
168.487603
 30
0.0
 10
134.138293
 20
168.402392
 30
0.0
  0
SPLINE
  5
168
100
AcDbEntity
  8
Layer_1
 62
5
100
AcDbSpline
 70
8
 71
3
 72
8
 73
4
 74
0
 40
0
 40
0
 40
0
 40
0
 40
1
 40
1
 40
1
 40
1
 10
134.138293
 20
168.402392
 30
0.0
 10
133.693541
 20
168.367873
 30
0.0
 10
133.254074
 20
168.389214
 30
0.0
 10
132.833546
 20
168.551480
 30
0.0
  0
SPLINE
  5
169
100
AcDbEntity
  8
Layer_1
 62
5
100
AcDbSpline
 70
8
 71
3
 72
8
 73
4
 74
0
 40
0
 40
0
 40
0
 40
0
 40
1
 40
1
 40
1
 40
1
 10
132.833546
 20
168.551480
 30
0.0
 10
132.413019
 20
168.713745
 30
0.0
 10
132.068107
 20
168.976453
 30
0.0
 10
131.675448
 20
169.320783
 30
0.0
  0
LWPOLYLINE
  5
16a
100
AcDbEntity
  8
Layer_1
 62
5
100
AcDbPolyline
 90
4
 70
1
 10
137.617461
 20
175.744163
 30
0.0
 10
137.616962
 20
175.743665
 30
0.0
 10
137.568731
 20
175.639890
 30
0.0
 10
137.803577
 20
175.376806
 30
0.0
  0
SPLINE
  5
16b
100
AcDbEntity
  8
Layer_1
 62
5
100
AcDbSpline
 70
8
 71
3
 72
8
 73
4
 74
0
 40
0
 40
0
 40
0
 40
0
 40
1
 40
1
 40
1
 40
1
 10
131.340245
 20
169.466947
 30
0.0
 10
129.659697
 20
168.678757
 30
0.0
 10
127.584058
 20
168.407362
 30
0.0
 10
125.811874
 20
168.759028
 30
0.0
  0
SPLINE
  5
16c
100
AcDbEntity
  8
Layer_1
 62
5
100
AcDbSpline
 70
8
 71
3
 72
8
 73
4
 74
0
 40
0
 40
0
 40
0
 40
0
 40
1
 40
1
 40
1
 40
1
 10
125.811874
 20
168.759028
 30
0.0
 10
124.710184
 20
168.977650
 30
0.0
 10
123.762744
 20
169.419242
 30
0.0
 10
122.801889
 20
170.147578
 30
0.0
  0
SPLINE
  5
16d
100
AcDbEntity
  8
Layer_1
 62
5
100
AcDbSpline
 70
8
 71
3
 72
8
 73
4
 74
0
 40
0
 40
0
 40
0
 40
0
 40
1
 40
1
 40
1
 40
1
 10
122.801889
 20
170.147578
 30
0.0
 10
122.536538
 20
170.348716
 30
0.0
 10
121.971420
 20
170.678012
 30
0.0
 10
121.762183
 20
170.766335
 30
0.0
  0
SPLINE
  5
16e
100
AcDbEntity
  8
Layer_1
 62
5
100
AcDbSpline
 70
8
 71
3
 72
8
 73
4
 74
0
 40
0
 40
0
 40
0
 40
0
 40
1
 40
1
 40
1
 40
1
 10
121.762183
 20
170.766335
 30
0.0
 10
121.606812
 20
170.831928
 30
0.0
 10
121.464071
 20
170.899136
 30
0.0
 10
121.331490
 20
170.964145
 30
0.0
  0
SPLINE
  5
16f
100
AcDbEntity
  8
Layer_1
 62
5
100
AcDbSpline
 70
8
 71
3
 72
8
 73
4
 74
0
 40
0
 40
0
 40
0
 40
0
 40
1
 40
1
 40
1
 40
1
 10
121.331490
 20
170.964145
 30
0.0
 10
121.315001
 20
170.951648
 30
0.0
 10
121.320289
 20
170.957435
 30
0.0
 10
121.302753
 20
170.943191
 30
0.0
  0
SPLINE
  5
170
100
AcDbEntity
  8
Layer_1
 62
5
100
AcDbSpline
 70
8
 71
3
 72
8
 73
4
 74
0
 40
0
 40
0
 40
0
 40
0
 40
1
 40
1
 40
1
 40
1
 10
121.302753
 20
170.943191
 30
0.0
 10
120.381613
 20
170.206227
 30
0.0
 10
118.211731
 20
168.752346
 30
0.0
 10
116.749775
 20
167.878153
 30
0.0
  0
SPLINE
  5
171
100
AcDbEntity
  8
Layer_1
 62
5
100
AcDbSpline
 70
8
 71
3
 72
8
 73
4
 74
0
 40
0
 40
0
 40
0
 40
0
 40
1
 40
1
 40
1
 40
1
 10
116.749775
 20
167.878153
 30
0.0
 10
115.125090
 20
166.906646
 30
0.0
 10
114.124452
 20
166.538398
 30
0.0
 10
112.870120
 20
166.490089
 30
0.0
  0
SPLINE
  5
172
100
AcDbEntity
  8
Layer_1
 62
5
100
AcDbSpline
 70
8
 71
3
 72
8
 73
4
 74
0
 40
0
 40
0
 40
0
 40
0
 40
1
 40
1
 40
1
 40
1
 10
112.870120
 20
166.490089
 30
0.0
 10
111.612363
 20
166.441648
 30
0.0
 10
110.573317
 20
166.819632
 30
0.0
 10
109.346131
 20
167.731014
 30
0.0
  0
SPLINE
  5
173
100
AcDbEntity
  8
Layer_1
 62
5
100
AcDbSpline
 70
8
 71
3
 72
8
 73
4
 74
0
 40
0
 40
0
 40
0
 40
0
 40
1
 40
1
 40
1
 40
1
 10
109.346131
 20
167.731014
 30
0.0
 10
108.848175
 20
168.100825
 30
0.0
 10
108.042856
 20
168.817340
 30
0.0
 10
107.254537
 20
169.549772
 30
0.0
  0
LWPOLYLINE
  5
174
100
AcDbEntity
  8
Layer_1
 62
5
100
AcDbPolyline
 90
4
 70
1
 10
131.675448
 20
169.320783
 30
0.0
 10
131.449392
 20
169.518601
 30
0.0
 10
131.340744
 20
169.467446
 30
0.0
 10
131.340245
 20
169.466947
 30
0.0
  0
LWPOLYLINE
  5
175
100
AcDbEntity
  8
Layer_1
 62
5
100
AcDbPolyline
 90
2
 70
1
 10
107.254537
 20
169.549772
 30
0.0
 10
107.254524
 20
169.549790
 30
0.0
  0
ENDSEC
  0
SECTION
  2
OBJECTS
  0
DICTIONARY
  5
C
330
0
100
AcDbDictionary
  3
ACAD_GROUP
350
D
  3
ACAD_MLINESTYLE
350
17
  0
DICTIONARY
  5
D
330
C
100
AcDbDictionary
  0
DICTIONARY
  5
1A
330
C
100
AcDbDictionary
  0
DICTIONARY
  5
17
330
C
100
AcDbDictionary
  3
STANDARD
350
18
  0
DICTIONARY
  5
19
330
C
100
AcDbDictionary
  0
ENDSEC
  0
EOF
