<?xml version="1.0" encoding="UTF-8" standalone="no"?>
<!-- Created with Inkscape (http://www.inkscape.org/) -->

<svg
   xmlns:dc="http://purl.org/dc/elements/1.1/"
   xmlns:cc="http://creativecommons.org/ns#"
   xmlns:rdf="http://www.w3.org/1999/02/22-rdf-syntax-ns#"
   xmlns:svg="http://www.w3.org/2000/svg"
   xmlns="http://www.w3.org/2000/svg"
   xmlns:sodipodi="http://sodipodi.sourceforge.net/DTD/sodipodi-0.dtd"
   xmlns:inkscape="http://www.inkscape.org/namespaces/inkscape"
   width="210mm"
   height="297mm"
   viewBox="0 0 744.09448819 1052.3622047"
   id="svg4480"
   version="1.1"
   inkscape:version="0.91 r13725"
   sodipodi:docname="ExchangeableOutlineLayer.svg">
  <defs
     id="defs4482" />
  <sodipodi:namedview
     id="base"
     pagecolor="#ffffff"
     bordercolor="#666666"
     borderopacity="1.0"
     inkscape:pageopacity="0.0"
     inkscape:pageshadow="2"
     inkscape:zoom="1.979899"
     inkscape:cx="316.07983"
     inkscape:cy="759.30147"
     inkscape:document-units="px"
     inkscape:current-layer="layer1"
     showgrid="false"
     inkscape:window-width="1920"
     inkscape:window-height="1017"
     inkscape:window-x="1912"
     inkscape:window-y="-8"
     inkscape:window-maximized="1" />
  <metadata
     id="metadata4485">
    <rdf:RDF>
      <cc:Work
         rdf:about="">
        <dc:format>image/svg+xml</dc:format>
        <dc:type
           rdf:resource="http://purl.org/dc/dcmitype/StillImage" />
        <dc:title></dc:title>
      </cc:Work>
    </rdf:RDF>
  </metadata>
  <g
     inkscape:label="Layer 1"
     inkscape:groupmode="layer"
     id="layer1">
    <path
       style="fill:none;fill-opacity:1;stroke:#0009ff;stroke-width:0.80000001;stroke-miterlimit:4;stroke-dasharray:none;stroke-opacity:1"
       d="m 380.03572,451.59523 c -7.37501,-7.13678 -15.08466,-15.12151 -17.45741,-25.41996 -0.75748,-9.24509 4.79914,-17.20636 7.79919,-25.54974 2.2162,-3.43832 6.33504,-8.24787 2.87144,-12.19267 -5.46158,-6.1955 -11.24866,-12.13381 -17.2106,-17.86847 -31.4094,-31.83534 -62.6735,-63.83067 -94.85299,-94.89503 -2.98486,-5.2338 -10.03237,-2.58171 -12.94091,1.29845 -6.98547,4.8442 -15.86776,9.73811 -24.52522,6.45446 -6.9285,-2.83708 -10.88894,-9.61942 -16.2249,-14.49619 -4.53035,-4.9707 -9.52514,-10.00748 -11.79124,-16.46532 -1.98841,-9.56238 3.52838,-18.30765 6.83147,-26.87909 1.68947,-3.62289 6.56734,-6.91929 4.49784,-11.352 -5.81263,-9.46468 -11.60702,-19.24054 -20.09344,-26.60941 -1.79988,-4.91593 -0.45972,-10.96913 -4.2975,-15.07755 -6.76311,-14.37896 -13.49197,-28.97479 -23.26148,-41.6175 -2.65658,-5.20447 5.38785,-11.1472 9.45726,-6.79006 14.39368,10.71561 30.9898,17.80451 47.09913,25.46979 3.90232,0.0848 8.42494,-0.22979 10.56341,3.82629 7.64026,7.71294 17.15762,13.11935 26.39134,18.66282 9.36715,-6.74456 20.2274,-11.81595 31.73956,-13.29977 7.63144,-0.008 13.12941,5.9802 18.43914,10.62663 6.17424,5.37805 12.70307,10.87624 16.49131,18.27393 2.42711,6.91713 0.009,14.56463 -4.01818,20.37053 -1.2709,4.68515 -7.38093,7.31452 -6.50339,12.64144 1.88563,3.77813 5.24375,6.64654 7.99575,9.81543 7.42496,7.5426 15.08497,14.85017 22.40523,22.49617 28.23088,28.35183 56.40285,56.76693 85.13105,84.61711 3.964,2.64329 8.2103,-0.6791 11.55178,-2.76097 7.04299,-3.26554 14.06042,-7.23046 21.89276,-8.19951 8.64555,-1.15764 15.88506,5.00227 21.9377,10.32235 7.06233,6.33257 14.61333,13.04231 17.89878,22.21585 2.11133,9.20473 -3.5745,17.61108 -8.51344,24.82582 -1.53407,3.88675 -6.88704,7.38314 -6.38446,11.19187 3.55175,6.05774 8.24904,12.2342 7.64717,19.66403 0.15129,5.19292 -0.90069,10.43305 -3.15383,15.12095 5.72995,4.49621 4.97778,13.60216 0.24504,18.54966 -3.87659,4.96961 -10.5117,8.19974 -16.8374,6.74469 -3.87861,-4.75066 -10.30698,-1.85734 -15.15145,-0.70917 -8.10976,1.37616 -16.77409,-1.26112 -22.80639,-6.83729 -5.68004,-1.9745 -9.25649,4.23248 -13.75543,6.40089 -7.02904,4.49215 -15.06263,9.90379 -23.83491,7.80156 -6.15474,-1.52239 -10.77946,-6.19731 -15.27178,-10.37102 z"
       id="path4460"
       inkscape:connector-curvature="0" />
  </g>
</svg>
